<?xml version="1.0" standalone="no"?>
<!DOCTYPE svg PUBLIC "-//W3C//DTD SVG 20010904//EN"
 "http://www.w3.org/TR/2001/REC-SVG-20010904/DTD/svg10.dtd">
<svg version="1.0" xmlns="http://www.w3.org/2000/svg"
 width="300.000000pt" height="300.000000pt" viewBox="0 0 300.000000 300.000000"
 preserveAspectRatio="xMidYMid meet">
<metadata>
Created by potrace 1.10, written by Peter Selinger 2001-2011
</metadata>
<g transform="translate(0.000000,300.000000) scale(0.100000,-0.100000)"
fill="#000000" stroke="none">
<path d="M2625 2570 c-22 -4 -199 -31 -392 -60 l-353 -53 0 -474 0 -473 43 6
c23 4 206 35 407 68 l365 61 3 468 c3 524 11 473 -73 457z"/>
<path d="M1219 2357 l-397 -61 8 -25 c12 -40 542 -1686 544 -1688 0 0 55 7
121 18 66 10 123 18 128 19 4 0 7 405 7 900 0 495 -3 900 -7 899 -5 0 -186
-28 -404 -62z"/>
<path d="M393 2233 l-93 -15 0 -484 c0 -381 3 -484 13 -484 24 0 527 87 532
92 5 4 -26 103 -206 661 l-80 247 -37 -1 c-20 -1 -79 -8 -129 -16z"/>
<path d="M2260 1329 c-201 -32 -368 -58 -372 -59 -8 0 -11 -610 -3 -610 2 0
182 27 400 60 218 33 400 60 405 60 6 0 10 116 10 305 l0 305 -37 -1 c-21 -1
-202 -27 -403 -60z"/>
<path d="M600 1071 l-295 -47 -3 -303 -2 -303 32 6 c18 3 199 31 403 61 203
31 371 57 372 58 1 1 -40 130 -91 287 -63 195 -96 285 -106 286 -8 1 -148 -19
-310 -45z"/>
</g>
</svg>
