<?xml version="1.0" encoding="UTF-8" standalone="no"?>
<svg
   xmlns:svg="http://www.w3.org/2000/svg"
   xmlns="http://www.w3.org/2000/svg"
   version="1.1"
   id="svg83932"
   viewBox="0 0 1156.6653 330.90183"
   height="330.90182"
   width="1156.6653">
  <defs
     id="defs83934" />
  <g
     transform="translate(138.33266,-161.197)"
     id="layer1">
    <path
       id="path150"
       d="m 939.89965,166.19731 c -10.73954,-0.0318 -15.46424,2.39383 -18.69368,10.9824 -21.72117,57.37527 -0.22736,214.95499 23.23409,216.66303 36.73907,2.66413 62.56504,-114.23468 68.75264,-202.20436 1.2139,-17.35974 -5.5761,-23.32197 -16.24331,-24.07394 -2.24517,-0.17187 -42.40045,-0.57835 -48.59881,-0.9973 -3.17439,-0.22358 -5.97258,-0.36249 -8.45093,-0.36983 z m -137.03533,34.18786 c -12.95537,0 -41.96901,4.90781 -56.26717,7.15299 -9.7756,1.77249 -11.0976,1.7732 -12.0322,5.33968 -1.32131,5.37122 -3.56531,57.59014 -4.41395,68.74076 -3.15827,0 -18.77885,-0.46193 -22.35607,0 -6.69254,0.45117 -8.45331,1.33148 -8.45331,25.44823 0,23.63332 -5e-4,25.88962 7.5729,25.88962 3.13679,0 16.92998,-1.79421 20.07752,-1.79421 -2.24517,21.87156 -4.02982,42.82958 -4.02982,60.70497 0,35.69706 10.2824,87.56357 78.53973,87.00496 73.09142,-0.56933 75.2273,-33.29093 81.09266,-44.02261 2.78229,-5.02744 -23.06258,-30.03635 -29.21799,-30.03635 -1.27834,0 -14.99769,26.0168 -26.45985,26.88694 -12.11745,0.89163 -23.61107,-21.10674 -23.61107,-41.62477 0,-21.86082 1.75196,-42.85155 2.68655,-62.04825 23.63332,-0.87014 36.58685,-7.2e-4 52.18485,-0.87086 8.04607,-0.42969 10.2912,-1.79513 11.16134,-15.62062 l 0,-16.98297 c 0,-13.39582 -0.86988,-16.08112 -9.36713,-16.08112 -6.24134,0 -13.82542,-2.4e-4 -22.32267,0.47242 -8.47577,0 -18.29425,0.4519 -28.9937,0.89233 0.90238,-15.63021 1.33205,-24.55849 2.22367,-33.02352 0.45119,-4.89853 2.68655,-29.91776 2.68655,-35.27822 0,-8.91621 -1.34421,-11.1494 -10.70084,-11.1494 z m -220.86943,74.35005 c -65.62544,0 -131.64793,31.24935 -131.64793,104.89937 0,46.84769 32.55035,101.74042 120.47706,101.74042 92.83599,0 120.50805,-61.13379 120.50805,-111.12901 0,-62.47792 -42.84161,-95.51078 -109.33718,-95.51078 z m -646.586808,2.15687 c -5.811648,0 -51.339032,8.90713 -55.797132,10.22844 -10.71019,2.25591 -12.94361,4.90807 -12.94361,8.92572 0,6.70329 50.885389,112.02335 75.872259,154.89634 15.608735,27.651 23.204253,29.44465 29.886037,29.44465 9.829314,0 16.092051,-4.90993 26.79149412,-18.74618 C 18.843532,437.09463 38.051801,402.74179 46.50608,388.03542 l 25.438684,65.56986 c 6.252092,15.15755 12.954071,26.33102 26.80104,26.33102 10.656486,0 19.615826,-7.58504 28.542776,-18.29524 12.06373,-14.29816 30.34838,-44.18404 46.85947,-74.53139 10.72095,-18.73477 45.95521,-83.90824 45.95521,-94.61843 0,-4.90929 -3.55548,-7.14274 -9.36712,-8.47479 -7.57341,-1.79399 -32.59189,-7.12436 -38.83324,-7.12436 -8.01385,0 -9.96915,1.74045 -17.4029,19.6051 -0.64455,1.56839 -27.17988,85.27518 -39.24362,85.27518 -11.27954,0 -32.989622,-91.2353 -33.913475,-93.28709 -4.232508,-9.41036 -7.153455,-9.84192 -10.719939,-9.84192 -3.555747,0 -39.748441,5.37213 -54.895261,9.40052 -0.913103,0 -9.8180629,2.67389 -9.8180629,8.45331 0,3.57722 16.0500839,38.84517 16.0500839,38.84517 0,0 -19.886027,47.31042 -29.8979687,47.31042 -9.8400533,0 -38.8100903,-82.96295 -39.7017113,-85.70226 -5.253044,-15.7269 -8.938118,-20.05843 -16.951964,-20.05843 z M 333.11,280.4662 c -65.6147,0 -131.63601,31.25174 -131.63601,104.90175 0,46.83696 32.54797,101.73088 120.47467,101.73088 92.836,0 120.51045,-61.13618 120.51045,-111.1314 0,-62.48865 -42.86428,-95.50123 -109.34911,-95.50123 z m 253.50403,56.0572 c 35.19218,0 44.21588,23.6657 44.21588,35.21379 0,22.60206 -31.13119,44.73124 -58.28803,44.73124 -25.12652,0 -49.76792,-15.09136 -49.76792,-38.71395 0,-28.1344 39.20771,-41.23108 63.84007,-41.23108 z m -248.88251,5.74529 c 35.21365,0 44.22542,23.6323 44.22543,35.1804 0,22.62354 -31.15268,44.73123 -58.28804,44.73123 -25.12651,0 -49.7369,-15.06035 -49.7369,-38.68293 0,-28.17736 39.17788,-41.2287 63.79951,-41.2287 z m 613.94503,70.26775 c -21.86082,0 -56.67754,11.62389 -56.67754,36.60002 0,20.9692 21.88241,34.37633 44.17293,34.37633 24.11673,0 51.78879,-19.63845 51.78879,-39.71603 0,-10.29123 -8.04522,-31.26032 -39.28418,-31.26032 z"
       style="fill:#669510;fill-opacity:1;fill-rule:nonzero;stroke:none" />
  </g>
</svg>
